<svg width="22" height="20" viewBox="0 0 22 20" fill="none" xmlns="http://www.w3.org/2000/svg">
<path d="M20.3333 8.66668H4.51992L9.35992 2.85334C9.58624 2.58106 9.69512 2.23002 9.66261 1.87745C9.63011 1.52488 9.45887 1.19966 9.18659 0.973345C8.9143 0.747027 8.56326 0.638144 8.21069 0.670651C7.85812 0.703157 7.5329 0.874389 7.30658 1.14668L0.639919 9.14668C0.595066 9.21031 0.554958 9.27716 0.519918 9.34668C0.519918 9.41335 0.519919 9.45335 0.426586 9.52001C0.36615 9.67289 0.334507 9.83563 0.333252 10C0.334507 10.1644 0.36615 10.3271 0.426586 10.48C0.426586 10.5467 0.426585 10.5867 0.519918 10.6533C0.554958 10.7229 0.595066 10.7897 0.639919 10.8533L7.30658 18.8533C7.43195 19.0039 7.58894 19.1249 7.76638 19.2079C7.94383 19.2908 8.13737 19.3337 8.33325 19.3333C8.64479 19.334 8.9467 19.2255 9.18659 19.0267C9.3216 18.9147 9.4332 18.7773 9.515 18.6221C9.5968 18.467 9.6472 18.2973 9.6633 18.1226C9.6794 17.948 9.66089 17.7719 9.60883 17.6044C9.55677 17.437 9.47219 17.2814 9.35992 17.1467L4.51992 11.3333H20.3333C20.6869 11.3333 21.026 11.1929 21.2761 10.9428C21.5261 10.6928 21.6666 10.3536 21.6666 10C21.6666 9.64639 21.5261 9.30725 21.2761 9.0572C21.026 8.80715 20.6869 8.66668 20.3333 8.66668Z" fill="black"/>
</svg>
