<svg width="17" height="17" viewBox="0 0 17 17" fill="none" xmlns="http://www.w3.org/2000/svg">
<path d="M10.5282 8.59505L16.2616 2.87506C16.5126 2.62398 16.6537 2.28346 16.6537 1.92839C16.6537 1.57332 16.5126 1.23279 16.2616 0.981722C16.0105 0.73065 15.67 0.5896 15.3149 0.5896C14.9598 0.5896 14.6193 0.73065 14.3682 0.981722L8.64823 6.71505L2.92823 0.981722C2.67716 0.73065 2.33664 0.5896 1.98157 0.5896C1.6265 0.5896 1.28597 0.73065 1.0349 0.981722C0.783829 1.23279 0.642778 1.57332 0.642778 1.92839C0.642778 2.28346 0.783829 2.62398 1.0349 2.87506L6.76823 8.59505L1.0349 14.3151C0.909929 14.439 0.810737 14.5865 0.743046 14.749C0.675354 14.9114 0.640503 15.0857 0.640503 15.2617C0.640503 15.4377 0.675354 15.612 0.743046 15.7745C0.810737 15.937 0.909929 16.0844 1.0349 16.2084C1.15885 16.3334 1.30632 16.4326 1.4688 16.5002C1.63128 16.5679 1.80555 16.6028 1.98157 16.6028C2.15758 16.6028 2.33186 16.5679 2.49434 16.5002C2.65682 16.4326 2.80428 16.3334 2.92823 16.2084L8.64823 10.4751L14.3682 16.2084C14.4922 16.3334 14.6397 16.4326 14.8021 16.5002C14.9646 16.5679 15.1389 16.6028 15.3149 16.6028C15.4909 16.6028 15.6652 16.5679 15.8277 16.5002C15.9901 16.4326 16.1376 16.3334 16.2616 16.2084C16.3865 16.0844 16.4857 15.937 16.5534 15.7745C16.6211 15.612 16.656 15.4377 16.656 15.2617C16.656 15.0857 16.6211 14.9114 16.5534 14.749C16.4857 14.5865 16.3865 14.439 16.2616 14.3151L10.5282 8.59505Z" fill="#343434"/>
</svg>
