<svg width="21" height="21" viewBox="0 0 21 21" fill="none" xmlns="http://www.w3.org/2000/svg">
<path d="M20.1127 7.4345C20.1127 7.4345 20.1127 7.4345 20.1127 7.3845C19.4081 5.46072 18.1296 3.79978 16.4502 2.62636C14.7708 1.45294 12.7715 0.823669 10.7227 0.823669C8.67396 0.823669 6.67464 1.45294 4.99522 2.62636C3.3158 3.79978 2.03731 5.46072 1.33271 7.3845C1.33271 7.3845 1.33271 7.3845 1.33271 7.4345C0.545835 9.60539 0.545835 11.9836 1.33271 14.1545C1.33271 14.1545 1.33271 14.1545 1.33271 14.2045C2.03731 16.1283 3.3158 17.7892 4.99522 18.9626C6.67464 20.1361 8.67396 20.7653 10.7227 20.7653C12.7715 20.7653 14.7708 20.1361 16.4502 18.9626C18.1296 17.7892 19.4081 16.1283 20.1127 14.2045C20.1127 14.2045 20.1127 14.2045 20.1127 14.1545C20.8996 11.9836 20.8996 9.60539 20.1127 7.4345ZM2.96271 12.7945C2.61594 11.4837 2.61594 10.1053 2.96271 8.7945H4.82271C4.66274 10.123 4.66274 11.466 4.82271 12.7945H2.96271ZM3.78271 14.7945H5.18271C5.41743 15.6863 5.75292 16.5486 6.18271 17.3645C5.20201 16.6964 4.38221 15.8186 3.78271 14.7945ZM5.18271 6.7945H3.78271C4.37358 5.77358 5.1829 4.89596 6.15271 4.2245C5.73326 5.04174 5.40785 5.90392 5.18271 6.7945ZM9.70271 18.4945C8.47447 17.5932 7.61186 16.2797 7.27271 14.7945H9.70271V18.4945ZM9.70271 12.7945H6.84271C6.6561 11.4677 6.6561 10.1213 6.84271 8.7945H9.70271V12.7945ZM9.70271 6.7945H7.27271C7.61186 5.30927 8.47447 3.99582 9.70271 3.0945V6.7945ZM17.6227 6.7945H16.2227C15.988 5.90266 15.6525 5.04044 15.2227 4.2245C16.2034 4.89257 17.0232 5.77044 17.6227 6.7945ZM11.7027 3.0945C12.9309 3.99582 13.7936 5.30927 14.1327 6.7945H11.7027V3.0945ZM11.7027 18.4945V14.7945H14.1327C13.7936 16.2797 12.9309 17.5932 11.7027 18.4945ZM14.5627 12.7945H11.7027V8.7945H14.5627C14.7493 10.1213 14.7493 11.4677 14.5627 12.7945ZM15.2527 17.3645C15.6825 16.5486 16.018 15.6863 16.2527 14.7945H17.6527C17.0532 15.8186 16.2334 16.6964 15.2527 17.3645ZM18.4427 12.7945H16.5827C16.664 12.131 16.7041 11.463 16.7027 10.7945C16.7038 10.126 16.6637 9.45807 16.5827 8.7945H18.4427C18.7895 10.1053 18.7895 11.4837 18.4427 12.7945Z" fill="#3D3D3D"/>
</svg>
