<svg width="22" height="17" viewBox="0 0 22 17" fill="none" xmlns="http://www.w3.org/2000/svg">
<path d="M21.3933 5.88769L20.3933 5.3377L11.3933 0.337695H11.2833C11.222 0.311773 11.1584 0.291685 11.0933 0.277695H10.9033H10.7233C10.655 0.291694 10.5881 0.311774 10.5233 0.337695H10.4133L1.41332 5.3377C1.25942 5.42491 1.13141 5.55139 1.04235 5.70423C0.953295 5.85707 0.906372 6.0308 0.906372 6.2077C0.906372 6.38459 0.953295 6.55832 1.04235 6.71116C1.13141 6.864 1.25942 6.99048 1.41332 7.07769L3.90332 8.4577V13.1977C3.90332 13.9933 4.21939 14.7564 4.782 15.319C5.34461 15.8816 6.10767 16.1977 6.90332 16.1977H14.9033C15.699 16.1977 16.462 15.8816 17.0246 15.319C17.5872 14.7564 17.9033 13.9933 17.9033 13.1977V8.4577L19.9033 7.3377V10.1977C19.9033 10.4629 20.0087 10.7173 20.1962 10.9048C20.3837 11.0923 20.6381 11.1977 20.9033 11.1977C21.1685 11.1977 21.4229 11.0923 21.6104 10.9048C21.798 10.7173 21.9033 10.4629 21.9033 10.1977V6.7577C21.903 6.5805 21.8556 6.40657 21.766 6.2537C21.6764 6.10083 21.5478 5.97452 21.3933 5.88769ZM15.9033 13.1977C15.9033 13.4629 15.798 13.7173 15.6104 13.9048C15.4229 14.0923 15.1685 14.1977 14.9033 14.1977H6.90332C6.6381 14.1977 6.38375 14.0923 6.19621 13.9048C6.00868 13.7173 5.90332 13.4629 5.90332 13.1977V9.56769L10.4133 12.0677L10.5633 12.1277H10.6533C10.7363 12.1382 10.8203 12.1382 10.9033 12.1277C10.9863 12.1382 11.0703 12.1382 11.1533 12.1277H11.2433C11.2964 12.1165 11.3472 12.0962 11.3933 12.0677L15.9033 9.56769V13.1977ZM10.9033 10.0577L3.96332 6.19769L10.9033 2.33769L17.8433 6.19769L10.9033 10.0577Z" fill="#3D3D3D"/>
</svg>
