<svg width="21" height="20" viewBox="0 0 21 20" fill="none" xmlns="http://www.w3.org/2000/svg">
<path d="M20.6391 7.49757C20.576 7.31466 20.4611 7.154 20.3085 7.03507C20.1558 6.91615 19.9719 6.84406 19.7791 6.82757L14.0891 5.99757L11.5391 0.827568C11.4573 0.658497 11.3294 0.51591 11.1702 0.416142C11.0111 0.316373 10.827 0.263458 10.6391 0.263458C10.4513 0.263458 10.2672 0.316373 10.108 0.416142C9.94887 0.51591 9.82102 0.658497 9.73914 0.827568L7.18914 5.98757L1.49914 6.82757C1.31406 6.85387 1.14006 6.93153 0.996888 7.05173C0.853714 7.17192 0.747098 7.32984 0.689138 7.50757C0.636083 7.68124 0.631322 7.86609 0.675365 8.04226C0.719409 8.21844 0.810595 8.37929 0.939138 8.50757L5.06914 12.5076L4.06914 18.1876C4.03344 18.375 4.05213 18.5688 4.12301 18.746C4.19389 18.9232 4.31399 19.0764 4.46914 19.1876C4.62036 19.2957 4.79871 19.3595 4.98419 19.3719C5.16966 19.3842 5.35491 19.3446 5.51914 19.2576L10.6391 16.5876L15.7391 19.2676C15.8795 19.3467 16.038 19.3881 16.1991 19.3876C16.411 19.3883 16.6176 19.3218 16.7891 19.1976C16.9443 19.0864 17.0644 18.9332 17.1353 18.756C17.2061 18.5788 17.2248 18.385 17.1891 18.1976L16.1891 12.5176L20.3191 8.51757C20.4635 8.39525 20.5702 8.23447 20.6269 8.05392C20.6835 7.87336 20.6878 7.68044 20.6391 7.49757ZM14.4891 11.4976C14.3719 11.611 14.2841 11.7514 14.2336 11.9065C14.183 12.0617 14.1712 12.2268 14.1991 12.3876L14.9191 16.5776L11.1591 14.5776C11.0145 14.5005 10.8531 14.4602 10.6891 14.4602C10.5252 14.4602 10.3638 14.5005 10.2191 14.5776L6.45914 16.5776L7.17914 12.3876C7.20707 12.2268 7.19525 12.0617 7.1447 11.9065C7.09415 11.7514 7.00641 11.611 6.88914 11.4976L3.88914 8.49757L8.09914 7.88757C8.26114 7.86504 8.41514 7.80311 8.54764 7.70722C8.68014 7.61133 8.7871 7.48441 8.85914 7.33757L10.6391 3.52757L12.5191 7.34757C12.5912 7.49441 12.6981 7.62133 12.8306 7.71722C12.9631 7.81311 13.1171 7.87503 13.2791 7.89757L17.4891 8.50757L14.4891 11.4976Z" fill="#3D3D3D"/>
</svg>
